<svg width="534" height="92" viewBox="0 0 534 92" fill="none" xmlns="http://www.w3.org/2000/svg">
<path d="M53.3545 9.70756L47.4939 19.4151L44.6428 24.1475L38.7944 33.8551L35.9311 38.5875L30.0827 48.2951L28.4257 51.0618L23.2352 59.6529L20.7009 63.8757L16.4486 70.9137L11.9039 78.4492L20.0917 74.3478L30.8503 68.9601L34.067 70.5739L38.4533 72.7703L42.0232 74.554L35.3707 77.8789L27.1951 81.9803L10.4297 90.3774L7.78569 91.7L5.8484 88.4965L2.60741 83.1088L0.170578 79.0681L0 78.789L11.709 59.3617L14.2433 55.1511L19.4338 46.5599L24.2343 38.5875L30.0827 28.88L32.946 24.1475L38.7944 14.44L41.6455 9.70756L47.4939 0L53.3545 9.70756Z" fill="#18181B"/>
<path d="M95.0001 78.7889L92.3926 83.1088L89.1395 88.4965L87.2144 91.7L84.5826 90.3773L67.805 81.9803L59.6294 77.8789L49.9917 73.0494L47.494 71.7995L42.8518 69.4818L40.9998 68.5475L41.6456 67.4675L45.0328 61.8614L46.1781 59.9563L47.494 57.7599L49.5653 54.3259H49.5775L50.3572 53.0275L56.2056 43.32L59.7634 49.2173L62.054 53.0275L61.7982 53.4522L56.2056 62.7351L55.17 64.4582L58.1429 65.9507L58.6668 66.2177L74.9083 74.3477L83.0839 78.4492L71.7648 59.6529L66.5744 51.0617L64.9173 48.2951L64.1497 47.021L59.0567 38.5875L56.2056 33.8551L53.3545 38.5875L47.5061 48.2951L44.6429 53.0275L41.7918 57.7599L41.4019 58.4273L37.3933 60.4295L31.0941 63.5845L25.6112 66.3269L24.6243 66.8244L25.0873 66.072L27.6216 61.8493L32.7998 53.2581L32.9461 53.0275L38.7945 43.3321L41.6456 38.5875L47.5061 28.88L50.3572 24.1475L56.2056 14.44L62.054 24.1475L64.9173 28.88L70.7657 38.5875L73.1295 42.5191L75.5663 46.5599L80.7446 55.151L95.0001 78.7889Z" fill="#18181B"/>
<path d="M117.736 11.968H131.88V44.736H154.472V56H117.736V11.968ZM160.424 11.968H198.504V22.528H174.568V28.608H195.048V38.72H174.568V45.44H198.952V56H160.424V11.968ZM231.955 23.232V56H217.811V23.232H203.347V11.968H246.355V23.232H231.955ZM257.215 34.816H251.135L255.679 23.168H251.135V11.968H263.039V22.528L257.215 34.816ZM289.171 45.44H310.099V56H267.411V51.456L287.827 22.528H268.947V11.968H309.587V16.512L289.171 45.44ZM360.255 11.2C364.479 11.2 368.276 11.84 371.647 13.12C375.018 14.4 377.684 16.2987 379.647 18.816C381.652 21.2907 382.655 24.32 382.655 27.904H369.151C369.151 26.0693 368.34 24.5973 366.719 23.488C365.098 22.336 363.135 21.76 360.831 21.76C357.503 21.76 354.986 22.656 353.279 24.448C351.572 26.1973 350.719 28.6933 350.719 31.936V36.032C350.719 39.2747 351.572 41.792 353.279 43.584C354.986 45.3333 357.503 46.208 360.831 46.208C363.135 46.208 365.098 45.6747 366.719 44.608C368.34 43.4987 369.151 42.0907 369.151 40.384H359.167V31.424H382.655V56H375.359L373.951 51.648C369.94 55.0613 364.692 56.768 358.207 56.768C350.911 56.768 345.428 54.8693 341.759 51.072C338.09 47.232 336.255 41.536 336.255 33.984C336.255 26.5173 338.324 20.864 342.463 17.024C346.644 13.1413 352.575 11.2 360.255 11.2ZM391.424 11.968H429.504V22.528H405.568V28.608H426.048V38.72H405.568V45.44H429.952V56H391.424V11.968ZM467.115 56L465.259 49.792H449.835L447.979 56H433.515L449.579 11.968H466.027L482.091 56H467.115ZM452.779 39.936H462.315L457.707 24.256H457.451L452.779 39.936ZM529.216 25.472C529.216 28.16 528.49 30.592 527.04 32.768C525.589 34.944 523.477 36.544 520.704 37.568L530.496 56H514.624L506.816 39.936H501.568V56H487.424V11.968H514.368C517.525 11.968 520.213 12.5867 522.432 13.824C524.693 15.0187 526.378 16.6613 527.488 18.752C528.64 20.8 529.216 23.04 529.216 25.472ZM514.816 26.048C514.816 24.896 514.432 23.936 513.664 23.168C512.896 22.4 511.957 22.016 510.848 22.016H501.568V30.144H510.848C511.957 30.144 512.896 29.76 513.664 28.992C514.432 28.1813 514.816 27.2 514.816 26.048Z" fill="#18181B"/>
<path d="M179.976 85.728C180.072 86.16 180.272 86.592 180.576 87.024C180.896 87.44 181.328 87.792 181.872 88.08C182.432 88.352 183.144 88.488 184.008 88.488C185.24 88.488 186.152 88.2 186.744 87.624C187.336 87.048 187.632 86.368 187.632 85.584C187.632 84.96 187.464 84.448 187.128 84.048C186.792 83.648 186.336 83.32 185.76 83.064C185.184 82.792 184.536 82.552 183.816 82.344C183.176 82.168 182.536 81.976 181.896 81.768C181.272 81.544 180.704 81.272 180.192 80.952C179.68 80.616 179.272 80.184 178.968 79.656C178.664 79.128 178.512 78.472 178.512 77.688C178.512 76.744 178.736 75.928 179.184 75.24C179.632 74.536 180.264 73.992 181.08 73.608C181.896 73.224 182.848 73.032 183.936 73.032C184.88 73.032 185.704 73.168 186.408 73.44C187.112 73.712 187.696 74.096 188.16 74.592C188.64 75.072 188.992 75.632 189.216 76.272L187.512 76.92C187.4 76.552 187.184 76.2 186.864 75.864C186.544 75.512 186.128 75.224 185.616 75C185.104 74.776 184.52 74.664 183.864 74.664C183.224 74.664 182.64 74.776 182.112 75C181.6 75.224 181.192 75.544 180.888 75.96C180.584 76.376 180.432 76.88 180.432 77.472C180.432 78.112 180.608 78.624 180.96 79.008C181.328 79.376 181.808 79.68 182.4 79.92C183.008 80.144 183.672 80.36 184.392 80.568C185.048 80.776 185.68 81 186.288 81.24C186.912 81.48 187.464 81.776 187.944 82.128C188.44 82.48 188.832 82.92 189.12 83.448C189.408 83.976 189.552 84.624 189.552 85.392C189.552 86.24 189.352 87.032 188.952 87.768C188.552 88.488 187.944 89.072 187.128 89.52C186.328 89.952 185.296 90.168 184.032 90.168C182.976 90.168 182.048 90.008 181.248 89.688C180.448 89.352 179.792 88.904 179.28 88.344C178.768 87.784 178.416 87.144 178.224 86.424L179.976 85.728ZM193.493 73.2H206.093V74.88H200.765V90H198.845V74.88H193.493V73.2ZM221.534 73.2H223.67L217.526 83.544V90H215.606V83.568L209.462 73.2H211.598L216.566 81.72L221.534 73.2ZM230.016 73.2V88.32H237.864V90H228.096V73.2H230.016ZM253.26 74.88H244.164V80.616H251.004V82.296H244.164V88.32H253.26V90H242.244V73.2H253.26V74.88ZM265.948 73.2H278.548V74.88H273.22V90H271.3V74.88H265.948V73.2ZM283.284 73.2H285.204V80.616H294.204V73.2H296.124V90H294.204V82.296H285.204V90H283.284V73.2ZM308.342 74.88H307.55L302.006 90H300.062L306.206 73.2H309.662L315.782 90H313.838L308.342 74.88ZM303.062 83.904H312.854V85.584H303.062V83.904ZM318.683 73.2H331.283V74.88H325.955V90H324.035V74.88H318.683V73.2ZM345.362 85.728C345.458 86.16 345.658 86.592 345.962 87.024C346.282 87.44 346.714 87.792 347.258 88.08C347.818 88.352 348.53 88.488 349.394 88.488C350.626 88.488 351.538 88.2 352.13 87.624C352.722 87.048 353.018 86.368 353.018 85.584C353.018 84.96 352.85 84.448 352.514 84.048C352.178 83.648 351.722 83.32 351.146 83.064C350.57 82.792 349.922 82.552 349.202 82.344C348.562 82.168 347.922 81.976 347.282 81.768C346.658 81.544 346.09 81.272 345.578 80.952C345.066 80.616 344.658 80.184 344.354 79.656C344.05 79.128 343.898 78.472 343.898 77.688C343.898 76.744 344.122 75.928 344.57 75.24C345.018 74.536 345.65 73.992 346.466 73.608C347.282 73.224 348.234 73.032 349.322 73.032C350.266 73.032 351.09 73.168 351.794 73.44C352.498 73.712 353.082 74.096 353.546 74.592C354.026 75.072 354.378 75.632 354.602 76.272L352.898 76.92C352.786 76.552 352.57 76.2 352.25 75.864C351.93 75.512 351.514 75.224 351.002 75C350.49 74.776 349.906 74.664 349.25 74.664C348.61 74.664 348.026 74.776 347.498 75C346.986 75.224 346.578 75.544 346.274 75.96C345.97 76.376 345.818 76.88 345.818 77.472C345.818 78.112 345.994 78.624 346.346 79.008C346.714 79.376 347.194 79.68 347.786 79.92C348.394 80.144 349.058 80.36 349.778 80.568C350.434 80.776 351.066 81 351.674 81.24C352.298 81.48 352.85 81.776 353.33 82.128C353.826 82.48 354.218 82.92 354.506 83.448C354.794 83.976 354.938 84.624 354.938 85.392C354.938 86.24 354.738 87.032 354.338 87.768C353.938 88.488 353.33 89.072 352.514 89.52C351.714 89.952 350.682 90.168 349.418 90.168C348.362 90.168 347.434 90.008 346.634 89.688C345.834 89.352 345.178 88.904 344.666 88.344C344.154 87.784 343.802 87.144 343.61 86.424L345.362 85.728ZM365.816 81.456C366.712 81.456 367.44 81.32 368 81.048C368.56 80.776 368.968 80.392 369.224 79.896C369.496 79.4 369.632 78.824 369.632 78.168C369.632 77.128 369.328 76.32 368.72 75.744C368.128 75.168 367.16 74.88 365.816 74.88H361.808V81.456H365.816ZM371.528 78.168C371.528 78.824 371.416 79.456 371.192 80.064C370.984 80.656 370.648 81.184 370.184 81.648C369.72 82.112 369.128 82.48 368.408 82.752C367.688 83.008 366.824 83.136 365.816 83.136H361.808V90H359.888V73.2H365.816C367.128 73.2 368.2 73.424 369.032 73.872C369.88 74.32 370.504 74.92 370.904 75.672C371.32 76.424 371.528 77.256 371.528 78.168ZM382.719 74.88H381.927L376.383 90H374.439L380.583 73.2H384.039L390.159 90H388.215L382.719 74.88ZM377.439 83.904H387.231V85.584H377.439V83.904ZM403.764 78.168C403.764 77.16 403.468 76.36 402.876 75.768C402.284 75.176 401.316 74.88 399.972 74.88H395.988V81.456H399.996C400.876 81.456 401.588 81.32 402.132 81.048C402.692 80.776 403.1 80.392 403.356 79.896C403.628 79.4 403.764 78.824 403.764 78.168ZM399.972 73.2C401.284 73.2 402.356 73.424 403.188 73.872C404.036 74.32 404.668 74.92 405.084 75.672C405.5 76.408 405.708 77.24 405.708 78.168C405.708 78.824 405.596 79.448 405.372 80.04C405.164 80.632 404.828 81.16 404.364 81.624C403.9 82.088 403.308 82.456 402.588 82.728C401.868 83 401.004 83.136 399.996 83.136H395.988V90H394.068V73.2H399.972ZM401.364 82.416L406.02 90H403.836L399.3 82.416H401.364ZM410.748 73.2H412.668V80.616H413.484L420.42 73.2H422.892L415.164 81.456L422.964 90H420.42L413.46 82.296H412.668V90H410.748V73.2ZM443.38 86.016H434.404V84.576L442.996 73.2H445.3V84.336H447.748V86.016H445.3V90H443.38V86.016ZM443.428 84.336V75.24L436.612 84.336H443.428ZM452.723 73.2H454.643V83.808C454.643 84.912 454.843 85.808 455.243 86.496C455.643 87.184 456.179 87.688 456.851 88.008C457.539 88.328 458.315 88.488 459.179 88.488C460.027 88.488 460.787 88.328 461.459 88.008C462.131 87.688 462.667 87.184 463.067 86.496C463.467 85.808 463.667 84.912 463.667 83.808V73.2H465.587V83.784C465.587 84.888 465.411 85.84 465.059 86.64C464.723 87.44 464.251 88.104 463.643 88.632C463.035 89.144 462.347 89.528 461.579 89.784C460.811 90.04 460.003 90.168 459.155 90.168C458.003 90.168 456.939 89.944 455.963 89.496C454.987 89.032 454.203 88.328 453.611 87.384C453.019 86.44 452.723 85.24 452.723 83.784V73.2Z" fill="#18181B"/>
</svg>
